<svg xmlns="http://www.w3.org/2000/svg" width="24" height="24" viewBox="0 0 24 24" shape-rendering="crispEdges"><rect x="5" y="2" width="14" height="2" fill="#fff"/><rect x="5" y="20" width="14" height="2" fill="#fff"/><rect x="6" y="3" width="12" height="1" fill="#000"/><rect x="6" y="20" width="12" height="1" fill="#000"/><rect x="7" y="4" width="10" height="1" fill="#000"/><rect x="8" y="5" width="8" height="1" fill="#000"/><rect x="9" y="6" width="6" height="1" fill="#000"/><rect x="10" y="7" width="4" height="1" fill="#000"/><rect x="11" y="8" width="2" height="1" fill="#000"/><rect x="12" y="9" width="0" height="1" fill="#000"/><rect x="13" y="10" width="-2" height="1" fill="#000"/><rect x="11" y="11" width="2" height="1" fill="#000"/><rect x="12" y="12" width="4" height="1" fill="#000"/><rect x="11" y="13" width="6" height="1" fill="#000"/><rect x="10" y="14" width="8" height="1" fill="#000"/><rect x="9" y="15" width="10" height="1" fill="#000"/><rect x="8" y="16" width="12" height="1" fill="#000"/><rect x="7" y="17" width="14" height="1" fill="#000"/><rect x="6" y="2" width="12" height="1" fill="#000"/><rect x="6" y="21" width="12" height="1" fill="#000"/></svg>